<?xml version="1.0" encoding="utf-8" standalone="no"?>
<!DOCTYPE svg PUBLIC "-//W3C//DTD SVG 1.1//EN"
  "http://www.w3.org/Graphics/SVG/1.1/DTD/svg11.dtd">
<!-- Created with matplotlib (http://matplotlib.org/) -->
<svg height="345pt" version="1.1" viewBox="0 0 460 345" width="460pt" xmlns="http://www.w3.org/2000/svg" xmlns:xlink="http://www.w3.org/1999/xlink">
 <defs>
  <style type="text/css">
*{stroke-linecap:butt;stroke-linejoin:round;}
  </style>
 </defs>
 <g id="figure_1">
  <g id="patch_1">
   <path d="M 0 345.6 
L 460.8 345.6 
L 460.8 0 
L 0 0 
z
" style="fill:none;"/>
  </g>
  <g id="axes_1">
   <g id="patch_2">
    <path d="M 57.6 307.584 
L 414.72 307.584 
L 414.72 41.472 
L 57.6 41.472 
z
" style="fill:none;"/>
   </g>
   <g id="matplotlib.axis_1">
    <g id="xtick_1">
     <g id="line2d_1">
      <path clip-path="url(#p75bd568bb0)" d="M 79.367816 307.584 
L 79.367816 41.472 
" style="fill:none;stroke:#ffffff;stroke-linecap:round;"/>
     </g>
     <g id="line2d_2"/>
     <g id="text_1">
      <!-- −4 -->
      <defs>
       <path d="M 52.828125 31.203125 
L 5.5625 31.203125 
L 5.5625 39.40625 
L 52.828125 39.40625 
z
" id="ArialMT-2212"/>
       <path d="M 32.328125 0 
L 32.328125 17.140625 
L 1.265625 17.140625 
L 1.265625 25.203125 
L 33.9375 71.578125 
L 41.109375 71.578125 
L 41.109375 25.203125 
L 50.78125 25.203125 
L 50.78125 17.140625 
L 41.109375 17.140625 
L 41.109375 0 
z
M 32.328125 25.203125 
L 32.328125 57.46875 
L 9.90625 25.203125 
z
" id="ArialMT-34"/>
      </defs>
      <g style="fill:#262626;" transform="translate(73.667035 321.741812)scale(0.1 -0.1)">
       <use xlink:href="#ArialMT-2212"/>
       <use x="58.398438" xlink:href="#ArialMT-34"/>
      </g>
     </g>
    </g>
    <g id="xtick_2">
     <g id="line2d_3">
      <path clip-path="url(#p75bd568bb0)" d="M 152.211405 307.584 
L 152.211405 41.472 
" style="fill:none;stroke:#ffffff;stroke-linecap:round;"/>
     </g>
     <g id="line2d_4"/>
     <g id="text_2">
      <!-- −2 -->
      <defs>
       <path d="M 50.34375 8.453125 
L 50.34375 0 
L 3.03125 0 
Q 2.9375 3.171875 4.046875 6.109375 
Q 5.859375 10.9375 9.828125 15.625 
Q 13.8125 20.3125 21.34375 26.46875 
Q 33.015625 36.03125 37.109375 41.625 
Q 41.21875 47.21875 41.21875 52.203125 
Q 41.21875 57.421875 37.46875 61 
Q 33.734375 64.59375 27.734375 64.59375 
Q 21.390625 64.59375 17.578125 60.78125 
Q 13.765625 56.984375 13.71875 50.25 
L 4.6875 51.171875 
Q 5.609375 61.28125 11.65625 66.578125 
Q 17.71875 71.875 27.9375 71.875 
Q 38.234375 71.875 44.234375 66.15625 
Q 50.25 60.453125 50.25 52 
Q 50.25 47.703125 48.484375 43.546875 
Q 46.734375 39.40625 42.65625 34.8125 
Q 38.578125 30.21875 29.109375 22.21875 
Q 21.1875 15.578125 18.9375 13.203125 
Q 16.703125 10.84375 15.234375 8.453125 
z
" id="ArialMT-32"/>
      </defs>
      <g style="fill:#262626;" transform="translate(146.510624 321.741812)scale(0.1 -0.1)">
       <use xlink:href="#ArialMT-2212"/>
       <use x="58.398438" xlink:href="#ArialMT-32"/>
      </g>
     </g>
    </g>
    <g id="xtick_3">
     <g id="line2d_5">
      <path clip-path="url(#p75bd568bb0)" d="M 225.054995 307.584 
L 225.054995 41.472 
" style="fill:none;stroke:#ffffff;stroke-linecap:round;"/>
     </g>
     <g id="line2d_6"/>
     <g id="text_3">
      <!-- 0 -->
      <defs>
       <path d="M 4.15625 35.296875 
Q 4.15625 48 6.765625 55.734375 
Q 9.375 63.484375 14.515625 67.671875 
Q 19.671875 71.875 27.484375 71.875 
Q 33.25 71.875 37.59375 69.546875 
Q 41.9375 67.234375 44.765625 62.859375 
Q 47.609375 58.5 49.21875 52.21875 
Q 50.828125 45.953125 50.828125 35.296875 
Q 50.828125 22.703125 48.234375 14.96875 
Q 45.65625 7.234375 40.5 3 
Q 35.359375 -1.21875 27.484375 -1.21875 
Q 17.140625 -1.21875 11.234375 6.203125 
Q 4.15625 15.140625 4.15625 35.296875 
z
M 13.1875 35.296875 
Q 13.1875 17.671875 17.3125 11.828125 
Q 21.4375 6 27.484375 6 
Q 33.546875 6 37.671875 11.859375 
Q 41.796875 17.71875 41.796875 35.296875 
Q 41.796875 52.984375 37.671875 58.78125 
Q 33.546875 64.59375 27.390625 64.59375 
Q 21.34375 64.59375 17.71875 59.46875 
Q 13.1875 52.9375 13.1875 35.296875 
z
" id="ArialMT-30"/>
      </defs>
      <g style="fill:#262626;" transform="translate(222.274526 321.741812)scale(0.1 -0.1)">
       <use xlink:href="#ArialMT-30"/>
      </g>
     </g>
    </g>
    <g id="xtick_4">
     <g id="line2d_7">
      <path clip-path="url(#p75bd568bb0)" d="M 297.898584 307.584 
L 297.898584 41.472 
" style="fill:none;stroke:#ffffff;stroke-linecap:round;"/>
     </g>
     <g id="line2d_8"/>
     <g id="text_4">
      <!-- 2 -->
      <g style="fill:#262626;" transform="translate(295.118115 321.741812)scale(0.1 -0.1)">
       <use xlink:href="#ArialMT-32"/>
      </g>
     </g>
    </g>
    <g id="xtick_5">
     <g id="line2d_9">
      <path clip-path="url(#p75bd568bb0)" d="M 370.742174 307.584 
L 370.742174 41.472 
" style="fill:none;stroke:#ffffff;stroke-linecap:round;"/>
     </g>
     <g id="line2d_10"/>
     <g id="text_5">
      <!-- 4 -->
      <g style="fill:#262626;" transform="translate(367.961705 321.741812)scale(0.1 -0.1)">
       <use xlink:href="#ArialMT-34"/>
      </g>
     </g>
    </g>
    <g id="text_6">
     <!-- difference (nbc: 92.084, j48: 92.389) -->
     <defs>
      <path d="M 40.234375 0 
L 40.234375 6.546875 
Q 35.296875 -1.171875 25.734375 -1.171875 
Q 19.53125 -1.171875 14.328125 2.25 
Q 9.125 5.671875 6.265625 11.796875 
Q 3.421875 17.921875 3.421875 25.875 
Q 3.421875 33.640625 6 39.96875 
Q 8.59375 46.296875 13.765625 49.65625 
Q 18.953125 53.03125 25.34375 53.03125 
Q 30.03125 53.03125 33.6875 51.046875 
Q 37.359375 49.078125 39.65625 45.90625 
L 39.65625 71.578125 
L 48.390625 71.578125 
L 48.390625 0 
z
M 12.453125 25.875 
Q 12.453125 15.921875 16.640625 10.984375 
Q 20.84375 6.0625 26.5625 6.0625 
Q 32.328125 6.0625 36.34375 10.765625 
Q 40.375 15.484375 40.375 25.140625 
Q 40.375 35.796875 36.265625 40.765625 
Q 32.171875 45.75 26.171875 45.75 
Q 20.3125 45.75 16.375 40.96875 
Q 12.453125 36.1875 12.453125 25.875 
z
" id="ArialMT-64"/>
      <path d="M 6.640625 61.46875 
L 6.640625 71.578125 
L 15.4375 71.578125 
L 15.4375 61.46875 
z
M 6.640625 0 
L 6.640625 51.859375 
L 15.4375 51.859375 
L 15.4375 0 
z
" id="ArialMT-69"/>
      <path d="M 8.6875 0 
L 8.6875 45.015625 
L 0.921875 45.015625 
L 0.921875 51.859375 
L 8.6875 51.859375 
L 8.6875 57.375 
Q 8.6875 62.59375 9.625 65.140625 
Q 10.890625 68.5625 14.078125 70.671875 
Q 17.28125 72.796875 23.046875 72.796875 
Q 26.765625 72.796875 31.25 71.921875 
L 29.9375 64.265625 
Q 27.203125 64.75 24.75 64.75 
Q 20.75 64.75 19.09375 63.03125 
Q 17.4375 61.328125 17.4375 56.640625 
L 17.4375 51.859375 
L 27.546875 51.859375 
L 27.546875 45.015625 
L 17.4375 45.015625 
L 17.4375 0 
z
" id="ArialMT-66"/>
      <path d="M 42.09375 16.703125 
L 51.171875 15.578125 
Q 49.03125 7.625 43.21875 3.21875 
Q 37.40625 -1.171875 28.375 -1.171875 
Q 17 -1.171875 10.328125 5.828125 
Q 3.65625 12.84375 3.65625 25.484375 
Q 3.65625 38.578125 10.390625 45.796875 
Q 17.140625 53.03125 27.875 53.03125 
Q 38.28125 53.03125 44.875 45.953125 
Q 51.46875 38.875 51.46875 26.03125 
Q 51.46875 25.25 51.421875 23.6875 
L 12.75 23.6875 
Q 13.234375 15.140625 17.578125 10.59375 
Q 21.921875 6.0625 28.421875 6.0625 
Q 33.25 6.0625 36.671875 8.59375 
Q 40.09375 11.140625 42.09375 16.703125 
z
M 13.234375 30.90625 
L 42.1875 30.90625 
Q 41.609375 37.453125 38.875 40.71875 
Q 34.671875 45.796875 27.984375 45.796875 
Q 21.921875 45.796875 17.796875 41.75 
Q 13.671875 37.703125 13.234375 30.90625 
z
" id="ArialMT-65"/>
      <path d="M 6.5 0 
L 6.5 51.859375 
L 14.40625 51.859375 
L 14.40625 44 
Q 17.4375 49.515625 20 51.265625 
Q 22.5625 53.03125 25.640625 53.03125 
Q 30.078125 53.03125 34.671875 50.203125 
L 31.640625 42.046875 
Q 28.421875 43.953125 25.203125 43.953125 
Q 22.3125 43.953125 20.015625 42.21875 
Q 17.71875 40.484375 16.75 37.40625 
Q 15.28125 32.71875 15.28125 27.15625 
L 15.28125 0 
z
" id="ArialMT-72"/>
      <path d="M 6.59375 0 
L 6.59375 51.859375 
L 14.5 51.859375 
L 14.5 44.484375 
Q 20.21875 53.03125 31 53.03125 
Q 35.6875 53.03125 39.625 51.34375 
Q 43.5625 49.65625 45.515625 46.921875 
Q 47.46875 44.1875 48.25 40.4375 
Q 48.734375 37.984375 48.734375 31.890625 
L 48.734375 0 
L 39.9375 0 
L 39.9375 31.546875 
Q 39.9375 36.921875 38.90625 39.578125 
Q 37.890625 42.234375 35.28125 43.8125 
Q 32.671875 45.40625 29.15625 45.40625 
Q 23.53125 45.40625 19.453125 41.84375 
Q 15.375 38.28125 15.375 28.328125 
L 15.375 0 
z
" id="ArialMT-6e"/>
      <path d="M 40.4375 19 
L 49.078125 17.875 
Q 47.65625 8.9375 41.8125 3.875 
Q 35.984375 -1.171875 27.484375 -1.171875 
Q 16.84375 -1.171875 10.375 5.78125 
Q 3.90625 12.75 3.90625 25.734375 
Q 3.90625 34.125 6.6875 40.421875 
Q 9.46875 46.734375 15.15625 49.875 
Q 20.84375 53.03125 27.546875 53.03125 
Q 35.984375 53.03125 41.359375 48.75 
Q 46.734375 44.484375 48.25 36.625 
L 39.703125 35.296875 
Q 38.484375 40.53125 35.375 43.15625 
Q 32.28125 45.796875 27.875 45.796875 
Q 21.234375 45.796875 17.078125 41.03125 
Q 12.9375 36.28125 12.9375 25.984375 
Q 12.9375 15.53125 16.9375 10.796875 
Q 20.953125 6.0625 27.390625 6.0625 
Q 32.5625 6.0625 36.03125 9.234375 
Q 39.5 12.40625 40.4375 19 
z
" id="ArialMT-63"/>
      <path id="ArialMT-20"/>
      <path d="M 23.390625 -21.046875 
Q 16.109375 -11.859375 11.078125 0.4375 
Q 6.0625 12.75 6.0625 25.921875 
Q 6.0625 37.546875 9.8125 48.1875 
Q 14.203125 60.546875 23.390625 72.796875 
L 29.6875 72.796875 
Q 23.78125 62.640625 21.875 58.296875 
Q 18.890625 51.5625 17.1875 44.234375 
Q 15.09375 35.109375 15.09375 25.875 
Q 15.09375 2.390625 29.6875 -21.046875 
z
" id="ArialMT-28"/>
      <path d="M 14.703125 0 
L 6.546875 0 
L 6.546875 71.578125 
L 15.328125 71.578125 
L 15.328125 46.046875 
Q 20.90625 53.03125 29.546875 53.03125 
Q 34.328125 53.03125 38.59375 51.09375 
Q 42.875 49.171875 45.625 45.671875 
Q 48.390625 42.1875 49.953125 37.25 
Q 51.515625 32.328125 51.515625 26.703125 
Q 51.515625 13.375 44.921875 6.09375 
Q 38.328125 -1.171875 29.109375 -1.171875 
Q 19.921875 -1.171875 14.703125 6.5 
z
M 14.59375 26.3125 
Q 14.59375 17 17.140625 12.84375 
Q 21.296875 6.0625 28.375 6.0625 
Q 34.125 6.0625 38.328125 11.0625 
Q 42.53125 16.0625 42.53125 25.984375 
Q 42.53125 36.140625 38.5 40.96875 
Q 34.46875 45.796875 28.765625 45.796875 
Q 23 45.796875 18.796875 40.796875 
Q 14.59375 35.796875 14.59375 26.3125 
z
" id="ArialMT-62"/>
      <path d="M 9.03125 41.84375 
L 9.03125 51.859375 
L 19.046875 51.859375 
L 19.046875 41.84375 
z
M 9.03125 0 
L 9.03125 10.015625 
L 19.046875 10.015625 
L 19.046875 0 
z
" id="ArialMT-3a"/>
      <path d="M 5.46875 16.546875 
L 13.921875 17.328125 
Q 14.984375 11.375 18.015625 8.6875 
Q 21.046875 6 25.78125 6 
Q 29.828125 6 32.875 7.859375 
Q 35.9375 9.71875 37.890625 12.8125 
Q 39.84375 15.921875 41.15625 21.1875 
Q 42.484375 26.46875 42.484375 31.9375 
Q 42.484375 32.515625 42.4375 33.6875 
Q 39.796875 29.5 35.234375 26.875 
Q 30.671875 24.265625 25.34375 24.265625 
Q 16.453125 24.265625 10.296875 30.703125 
Q 4.15625 37.15625 4.15625 47.703125 
Q 4.15625 58.59375 10.578125 65.234375 
Q 17 71.875 26.65625 71.875 
Q 33.640625 71.875 39.421875 68.109375 
Q 45.21875 64.359375 48.21875 57.390625 
Q 51.21875 50.4375 51.21875 37.25 
Q 51.21875 23.53125 48.234375 15.40625 
Q 45.265625 7.28125 39.375 3.03125 
Q 33.5 -1.21875 25.59375 -1.21875 
Q 17.1875 -1.21875 11.859375 3.4375 
Q 6.546875 8.109375 5.46875 16.546875 
z
M 41.453125 48.140625 
Q 41.453125 55.71875 37.421875 60.15625 
Q 33.40625 64.59375 27.734375 64.59375 
Q 21.875 64.59375 17.53125 59.8125 
Q 13.1875 55.03125 13.1875 47.40625 
Q 13.1875 40.578125 17.3125 36.296875 
Q 21.4375 32.03125 27.484375 32.03125 
Q 33.59375 32.03125 37.515625 36.296875 
Q 41.453125 40.578125 41.453125 48.140625 
z
" id="ArialMT-39"/>
      <path d="M 9.078125 0 
L 9.078125 10.015625 
L 19.09375 10.015625 
L 19.09375 0 
z
" id="ArialMT-2e"/>
      <path d="M 17.671875 38.8125 
Q 12.203125 40.828125 9.5625 44.53125 
Q 6.9375 48.25 6.9375 53.421875 
Q 6.9375 61.234375 12.546875 66.546875 
Q 18.171875 71.875 27.484375 71.875 
Q 36.859375 71.875 42.578125 66.421875 
Q 48.296875 60.984375 48.296875 53.171875 
Q 48.296875 48.1875 45.671875 44.5 
Q 43.0625 40.828125 37.75 38.8125 
Q 44.34375 36.671875 47.78125 31.875 
Q 51.21875 27.09375 51.21875 20.453125 
Q 51.21875 11.28125 44.71875 5.03125 
Q 38.234375 -1.21875 27.640625 -1.21875 
Q 17.046875 -1.21875 10.546875 5.046875 
Q 4.046875 11.328125 4.046875 20.703125 
Q 4.046875 27.6875 7.59375 32.390625 
Q 11.140625 37.109375 17.671875 38.8125 
z
M 15.921875 53.71875 
Q 15.921875 48.640625 19.1875 45.40625 
Q 22.46875 42.1875 27.6875 42.1875 
Q 32.765625 42.1875 36.015625 45.375 
Q 39.265625 48.578125 39.265625 53.21875 
Q 39.265625 58.0625 35.90625 61.359375 
Q 32.5625 64.65625 27.59375 64.65625 
Q 22.5625 64.65625 19.234375 61.421875 
Q 15.921875 58.203125 15.921875 53.71875 
z
M 13.09375 20.65625 
Q 13.09375 16.890625 14.875 13.375 
Q 16.65625 9.859375 20.171875 7.921875 
Q 23.6875 6 27.734375 6 
Q 34.03125 6 38.125 10.046875 
Q 42.234375 14.109375 42.234375 20.359375 
Q 42.234375 26.703125 38.015625 30.859375 
Q 33.796875 35.015625 27.4375 35.015625 
Q 21.234375 35.015625 17.15625 30.90625 
Q 13.09375 26.8125 13.09375 20.65625 
z
" id="ArialMT-38"/>
      <path d="M 8.890625 0 
L 8.890625 10.015625 
L 18.890625 10.015625 
L 18.890625 0 
Q 18.890625 -5.515625 16.9375 -8.90625 
Q 14.984375 -12.3125 10.75 -14.15625 
L 8.296875 -10.40625 
Q 11.078125 -9.1875 12.390625 -6.8125 
Q 13.71875 -4.4375 13.875 0 
z
" id="ArialMT-2c"/>
      <path d="M 6.546875 61.375 
L 6.546875 71.578125 
L 15.328125 71.578125 
L 15.328125 61.375 
z
M -4.59375 -20.125 
L -2.9375 -12.640625 
Q -0.296875 -13.328125 1.21875 -13.328125 
Q 3.90625 -13.328125 5.21875 -11.546875 
Q 6.546875 -9.765625 6.546875 -2.640625 
L 6.546875 51.859375 
L 15.328125 51.859375 
L 15.328125 -2.828125 
Q 15.328125 -12.40625 12.84375 -16.15625 
Q 9.671875 -21.046875 2.296875 -21.046875 
Q -1.265625 -21.046875 -4.59375 -20.125 
z
" id="ArialMT-6a"/>
      <path d="M 4.203125 18.890625 
L 12.984375 20.0625 
Q 14.5 12.59375 18.140625 9.296875 
Q 21.78125 6 27 6 
Q 33.203125 6 37.46875 10.296875 
Q 41.75 14.59375 41.75 20.953125 
Q 41.75 27 37.796875 30.921875 
Q 33.84375 34.859375 27.734375 34.859375 
Q 25.25 34.859375 21.53125 33.890625 
L 22.515625 41.609375 
Q 23.390625 41.5 23.921875 41.5 
Q 29.546875 41.5 34.03125 44.421875 
Q 38.53125 47.359375 38.53125 53.46875 
Q 38.53125 58.296875 35.25 61.46875 
Q 31.984375 64.65625 26.8125 64.65625 
Q 21.6875 64.65625 18.265625 61.421875 
Q 14.84375 58.203125 13.875 51.765625 
L 5.078125 53.328125 
Q 6.6875 62.15625 12.390625 67.015625 
Q 18.109375 71.875 26.609375 71.875 
Q 32.46875 71.875 37.390625 69.359375 
Q 42.328125 66.84375 44.9375 62.5 
Q 47.5625 58.15625 47.5625 53.265625 
Q 47.5625 48.640625 45.0625 44.828125 
Q 42.578125 41.015625 37.703125 38.765625 
Q 44.046875 37.3125 47.5625 32.6875 
Q 51.078125 28.078125 51.078125 21.140625 
Q 51.078125 11.765625 44.234375 5.25 
Q 37.40625 -1.265625 26.953125 -1.265625 
Q 17.53125 -1.265625 11.296875 4.34375 
Q 5.078125 9.96875 4.203125 18.890625 
z
" id="ArialMT-33"/>
      <path d="M 12.359375 -21.046875 
L 6.0625 -21.046875 
Q 20.65625 2.390625 20.65625 25.875 
Q 20.65625 35.0625 18.5625 44.09375 
Q 16.890625 51.421875 13.921875 58.15625 
Q 12.015625 62.546875 6.0625 72.796875 
L 12.359375 72.796875 
Q 21.53125 60.546875 25.921875 48.1875 
Q 29.6875 37.546875 29.6875 25.921875 
Q 29.6875 12.75 24.625 0.4375 
Q 19.578125 -11.859375 12.359375 -21.046875 
z
" id="ArialMT-29"/>
     </defs>
     <g style="fill:#262626;" transform="translate(147.803359 335.736969)scale(0.11 -0.11)">
      <use xlink:href="#ArialMT-64"/>
      <use x="55.615234" xlink:href="#ArialMT-69"/>
      <use x="77.832031" xlink:href="#ArialMT-66"/>
      <use x="105.599609" xlink:href="#ArialMT-66"/>
      <use x="133.382812" xlink:href="#ArialMT-65"/>
      <use x="188.998047" xlink:href="#ArialMT-72"/>
      <use x="222.298828" xlink:href="#ArialMT-65"/>
      <use x="277.914062" xlink:href="#ArialMT-6e"/>
      <use x="333.529297" xlink:href="#ArialMT-63"/>
      <use x="383.529297" xlink:href="#ArialMT-65"/>
      <use x="439.144531" xlink:href="#ArialMT-20"/>
      <use x="466.927734" xlink:href="#ArialMT-28"/>
      <use x="500.228516" xlink:href="#ArialMT-6e"/>
      <use x="555.84375" xlink:href="#ArialMT-62"/>
      <use x="611.458984" xlink:href="#ArialMT-63"/>
      <use x="661.458984" xlink:href="#ArialMT-3a"/>
      <use x="689.242188" xlink:href="#ArialMT-20"/>
      <use x="717.025391" xlink:href="#ArialMT-39"/>
      <use x="772.640625" xlink:href="#ArialMT-32"/>
      <use x="828.255859" xlink:href="#ArialMT-2e"/>
      <use x="856.039062" xlink:href="#ArialMT-30"/>
      <use x="911.654297" xlink:href="#ArialMT-38"/>
      <use x="967.269531" xlink:href="#ArialMT-34"/>
      <use x="1022.884766" xlink:href="#ArialMT-2c"/>
      <use x="1050.667969" xlink:href="#ArialMT-20"/>
      <use x="1078.451172" xlink:href="#ArialMT-6a"/>
      <use x="1100.667969" xlink:href="#ArialMT-34"/>
      <use x="1156.283203" xlink:href="#ArialMT-38"/>
      <use x="1211.898438" xlink:href="#ArialMT-3a"/>
      <use x="1239.681641" xlink:href="#ArialMT-20"/>
      <use x="1267.464844" xlink:href="#ArialMT-39"/>
      <use x="1323.080078" xlink:href="#ArialMT-32"/>
      <use x="1378.695312" xlink:href="#ArialMT-2e"/>
      <use x="1406.478516" xlink:href="#ArialMT-33"/>
      <use x="1462.09375" xlink:href="#ArialMT-38"/>
      <use x="1517.708984" xlink:href="#ArialMT-39"/>
      <use x="1573.324219" xlink:href="#ArialMT-29"/>
     </g>
    </g>
   </g>
   <g id="matplotlib.axis_2">
    <g id="ytick_1">
     <g id="line2d_11">
      <path clip-path="url(#p75bd568bb0)" d="M 57.6 295.488 
L 414.72 295.488 
" style="fill:none;stroke:#ffffff;stroke-linecap:round;"/>
     </g>
     <g id="line2d_12"/>
    </g>
    <g id="ytick_2">
     <g id="line2d_13">
      <path clip-path="url(#p75bd568bb0)" d="M 57.6 252.712044 
L 414.72 252.712044 
" style="fill:none;stroke:#ffffff;stroke-linecap:round;"/>
     </g>
     <g id="line2d_14"/>
    </g>
    <g id="ytick_3">
     <g id="line2d_15">
      <path clip-path="url(#p75bd568bb0)" d="M 57.6 209.936088 
L 414.72 209.936088 
" style="fill:none;stroke:#ffffff;stroke-linecap:round;"/>
     </g>
     <g id="line2d_16"/>
    </g>
    <g id="ytick_4">
     <g id="line2d_17">
      <path clip-path="url(#p75bd568bb0)" d="M 57.6 167.160132 
L 414.72 167.160132 
" style="fill:none;stroke:#ffffff;stroke-linecap:round;"/>
     </g>
     <g id="line2d_18"/>
    </g>
    <g id="ytick_5">
     <g id="line2d_19">
      <path clip-path="url(#p75bd568bb0)" d="M 57.6 124.384176 
L 414.72 124.384176 
" style="fill:none;stroke:#ffffff;stroke-linecap:round;"/>
     </g>
     <g id="line2d_20"/>
    </g>
    <g id="ytick_6">
     <g id="line2d_21">
      <path clip-path="url(#p75bd568bb0)" d="M 57.6 81.60822 
L 414.72 81.60822 
" style="fill:none;stroke:#ffffff;stroke-linecap:round;"/>
     </g>
     <g id="line2d_22"/>
    </g>
   </g>
   <g id="PolyCollection_1">
    <defs>
     <path d="M 73.832727 -50.112 
L 73.832727 -55.102467 
L 77.112066 -55.678038 
L 80.391405 -56.320823 
L 83.670744 -57.038454 
L 86.950083 -57.839346 
L 90.229421 -58.732753 
L 93.50876 -59.728823 
L 96.788099 -60.838654 
L 100.067438 -62.074338 
L 103.346777 -63.449005 
L 106.626116 -64.976849 
L 109.905455 -66.673145 
L 113.184793 -68.554239 
L 116.464132 -70.637525 
L 119.743471 -72.941383 
L 123.02281 -75.485082 
L 126.302149 -78.288648 
L 129.581488 -81.37267 
L 132.860826 -84.758057 
L 136.140165 -88.465732 
L 139.419504 -92.516245 
L 142.698843 -96.92932 
L 145.978182 -101.723314 
L 149.257521 -106.914597 
L 152.53686 -112.516847 
L 155.816198 -118.540269 
L 159.095537 -124.990752 
L 162.374876 -131.868963 
L 165.654215 -139.169422 
L 168.933554 -146.879567 
L 172.212893 -154.97885 
L 175.492231 -163.43791 
L 178.77157 -172.217863 
L 182.050909 -181.269759 
L 185.330248 -190.534268 
L 188.609587 -199.941634 
L 191.888926 -209.411957 
L 195.168264 -218.855841 
L 198.447603 -228.175426 
L 201.726942 -237.265833 
L 205.006281 -246.017008 
L 208.28562 -254.31593 
L 211.564959 -262.049147 
L 214.844298 -269.105548 
L 218.123636 -275.379284 
L 221.402975 -280.77273 
L 224.682314 -285.199343 
L 227.961653 -288.586309 
L 231.240992 -290.876838 
L 234.520331 -292.032 
L 237.799669 -292.032 
L 241.079008 -290.876838 
L 244.358347 -288.586309 
L 247.637686 -285.199343 
L 250.917025 -280.77273 
L 254.196364 -275.379284 
L 257.475702 -269.105548 
L 260.755041 -262.049147 
L 264.03438 -254.31593 
L 267.313719 -246.017008 
L 270.593058 -237.265833 
L 273.872397 -228.175426 
L 277.151736 -218.855841 
L 280.431074 -209.411957 
L 283.710413 -199.941634 
L 286.989752 -190.534268 
L 290.269091 -181.269759 
L 293.54843 -172.217863 
L 296.827769 -163.43791 
L 300.107107 -154.97885 
L 303.386446 -146.879567 
L 306.665785 -139.169422 
L 309.945124 -131.868963 
L 313.224463 -124.990752 
L 316.503802 -118.540269 
L 319.78314 -112.516847 
L 323.062479 -106.914597 
L 326.341818 -101.723314 
L 329.621157 -96.92932 
L 332.900496 -92.516245 
L 336.179835 -88.465732 
L 339.459174 -84.758057 
L 342.738512 -81.37267 
L 346.017851 -78.288648 
L 349.29719 -75.485082 
L 352.576529 -72.941383 
L 355.855868 -70.637525 
L 359.135207 -68.554239 
L 362.414545 -66.673145 
L 365.693884 -64.976849 
L 368.973223 -63.449005 
L 372.252562 -62.074338 
L 375.531901 -60.838654 
L 378.81124 -59.728823 
L 382.090579 -58.732753 
L 385.369917 -57.839346 
L 388.649256 -57.038454 
L 391.928595 -56.320823 
L 395.207934 -55.678038 
L 398.487273 -55.102467 
L 398.487273 -50.112 
L 398.487273 -50.112 
L 395.207934 -50.112 
L 391.928595 -50.112 
L 388.649256 -50.112 
L 385.369917 -50.112 
L 382.090579 -50.112 
L 378.81124 -50.112 
L 375.531901 -50.112 
L 372.252562 -50.112 
L 368.973223 -50.112 
L 365.693884 -50.112 
L 362.414545 -50.112 
L 359.135207 -50.112 
L 355.855868 -50.112 
L 352.576529 -50.112 
L 349.29719 -50.112 
L 346.017851 -50.112 
L 342.738512 -50.112 
L 339.459174 -50.112 
L 336.179835 -50.112 
L 332.900496 -50.112 
L 329.621157 -50.112 
L 326.341818 -50.112 
L 323.062479 -50.112 
L 319.78314 -50.112 
L 316.503802 -50.112 
L 313.224463 -50.112 
L 309.945124 -50.112 
L 306.665785 -50.112 
L 303.386446 -50.112 
L 300.107107 -50.112 
L 296.827769 -50.112 
L 293.54843 -50.112 
L 290.269091 -50.112 
L 286.989752 -50.112 
L 283.710413 -50.112 
L 280.431074 -50.112 
L 277.151736 -50.112 
L 273.872397 -50.112 
L 270.593058 -50.112 
L 267.313719 -50.112 
L 264.03438 -50.112 
L 260.755041 -50.112 
L 257.475702 -50.112 
L 254.196364 -50.112 
L 250.917025 -50.112 
L 247.637686 -50.112 
L 244.358347 -50.112 
L 241.079008 -50.112 
L 237.799669 -50.112 
L 234.520331 -50.112 
L 231.240992 -50.112 
L 227.961653 -50.112 
L 224.682314 -50.112 
L 221.402975 -50.112 
L 218.123636 -50.112 
L 214.844298 -50.112 
L 211.564959 -50.112 
L 208.28562 -50.112 
L 205.006281 -50.112 
L 201.726942 -50.112 
L 198.447603 -50.112 
L 195.168264 -50.112 
L 191.888926 -50.112 
L 188.609587 -50.112 
L 185.330248 -50.112 
L 182.050909 -50.112 
L 178.77157 -50.112 
L 175.492231 -50.112 
L 172.212893 -50.112 
L 168.933554 -50.112 
L 165.654215 -50.112 
L 162.374876 -50.112 
L 159.095537 -50.112 
L 155.816198 -50.112 
L 152.53686 -50.112 
L 149.257521 -50.112 
L 145.978182 -50.112 
L 142.698843 -50.112 
L 139.419504 -50.112 
L 136.140165 -50.112 
L 132.860826 -50.112 
L 129.581488 -50.112 
L 126.302149 -50.112 
L 123.02281 -50.112 
L 119.743471 -50.112 
L 116.464132 -50.112 
L 113.184793 -50.112 
L 109.905455 -50.112 
L 106.626116 -50.112 
L 103.346777 -50.112 
L 100.067438 -50.112 
L 96.788099 -50.112 
L 93.50876 -50.112 
L 90.229421 -50.112 
L 86.950083 -50.112 
L 83.670744 -50.112 
L 80.391405 -50.112 
L 77.112066 -50.112 
L 73.832727 -50.112 
z
" id="m147ae82617" style="stroke:#34ccff;stroke-width:0.3;"/>
    </defs>
    <g clip-path="url(#p75bd568bb0)">
     <use style="fill:#34ccff;stroke:#34ccff;stroke-width:0.3;" x="0" xlink:href="#m147ae82617" y="345.6"/>
    </g>
   </g>
   <g id="line2d_23">
    <path clip-path="url(#p75bd568bb0)" d="M 225.054995 307.584 
L 225.054995 41.472 
" style="fill:none;stroke:#ffad2f;stroke-linecap:round;stroke-width:2;"/>
   </g>
   <g id="line2d_24">
    <path clip-path="url(#p75bd568bb0)" d="M 225.054995 307.584 
L 225.054995 41.472 
" style="fill:none;stroke:#ffad2f;stroke-linecap:round;stroke-width:2;"/>
   </g>
   <g id="line2d_25">
    <path clip-path="url(#p75bd568bb0)" d="M 73.832727 290.497533 
L 77.112066 289.921962 
L 80.391405 289.279177 
L 83.670744 288.561546 
L 86.950083 287.760654 
L 90.229421 286.867247 
L 93.50876 285.871177 
L 96.788099 284.761346 
L 100.067438 283.525662 
L 103.346777 282.150995 
L 106.626116 280.623151 
L 109.905455 278.926855 
L 113.184793 277.045761 
L 116.464132 274.962475 
L 119.743471 272.658617 
L 123.02281 270.114918 
L 126.302149 267.311352 
L 129.581488 264.22733 
L 132.860826 260.841943 
L 136.140165 257.134268 
L 139.419504 253.083755 
L 142.698843 248.67068 
L 145.978182 243.876686 
L 149.257521 238.685403 
L 152.53686 233.083153 
L 155.816198 227.059731 
L 159.095537 220.609248 
L 162.374876 213.731037 
L 165.654215 206.430578 
L 168.933554 198.720433 
L 172.212893 190.62115 
L 175.492231 182.16209 
L 178.77157 173.382137 
L 182.050909 164.330241 
L 185.330248 155.065732 
L 188.609587 145.658366 
L 191.888926 136.188043 
L 195.168264 126.744159 
L 198.447603 117.424574 
L 201.726942 108.334167 
L 205.006281 99.582992 
L 208.28562 91.28407 
L 211.564959 83.550853 
L 214.844298 76.494452 
L 218.123636 70.220716 
L 221.402975 64.82727 
L 224.682314 60.400657 
L 227.961653 57.013691 
L 231.240992 54.723162 
L 234.520331 53.568 
L 237.799669 53.568 
L 241.079008 54.723162 
L 244.358347 57.013691 
L 247.637686 60.400657 
L 250.917025 64.82727 
L 254.196364 70.220716 
L 257.475702 76.494452 
L 260.755041 83.550853 
L 264.03438 91.28407 
L 267.313719 99.582992 
L 270.593058 108.334167 
L 273.872397 117.424574 
L 277.151736 126.744159 
L 280.431074 136.188043 
L 283.710413 145.658366 
L 286.989752 155.065732 
L 290.269091 164.330241 
L 293.54843 173.382137 
L 296.827769 182.16209 
L 300.107107 190.62115 
L 303.386446 198.720433 
L 306.665785 206.430578 
L 309.945124 213.731037 
L 313.224463 220.609248 
L 316.503802 227.059731 
L 319.78314 233.083153 
L 323.062479 238.685403 
L 326.341818 243.876686 
L 329.621157 248.67068 
L 332.900496 253.083755 
L 336.179835 257.134268 
L 339.459174 260.841943 
L 342.738512 264.22733 
L 346.017851 267.311352 
L 349.29719 270.114918 
L 352.576529 272.658617 
L 355.855868 274.962475 
L 359.135207 277.045761 
L 362.414545 278.926855 
L 365.693884 280.623151 
L 368.973223 282.150995 
L 372.252562 283.525662 
L 375.531901 284.761346 
L 378.81124 285.871177 
L 382.090579 286.867247 
L 385.369917 287.760654 
L 388.649256 288.561546 
L 391.928595 289.279177 
L 395.207934 289.921962 
L 398.487273 290.497533 
" style="fill:none;stroke:#2f56e0;stroke-linecap:round;stroke-width:2;"/>
   </g>
   <g id="patch_3">
    <path d="M 57.6 307.584 
L 57.6 41.472 
" style="fill:none;"/>
   </g>
   <g id="patch_4">
    <path d="M 414.72 307.584 
L 414.72 41.472 
" style="fill:none;"/>
   </g>
   <g id="patch_5">
    <path d="M 57.6 307.584 
L 414.72 307.584 
" style="fill:none;"/>
   </g>
   <g id="patch_6">
    <path d="M 57.6 41.472 
L 414.72 41.472 
" style="fill:none;"/>
   </g>
   <g id="legend_1">
    <g id="line2d_26">
     <path d="M 357.7075 54.129813 
L 377.7075 54.129813 
" style="fill:none;stroke:#ffad2f;stroke-linecap:round;stroke-width:2;"/>
    </g>
    <g id="line2d_27"/>
    <g id="text_7">
     <!-- rope -->
     <defs>
      <path d="M 3.328125 25.921875 
Q 3.328125 40.328125 11.328125 47.265625 
Q 18.015625 53.03125 27.640625 53.03125 
Q 38.328125 53.03125 45.109375 46.015625 
Q 51.90625 39.015625 51.90625 26.65625 
Q 51.90625 16.65625 48.90625 10.90625 
Q 45.90625 5.171875 40.15625 2 
Q 34.421875 -1.171875 27.640625 -1.171875 
Q 16.75 -1.171875 10.03125 5.8125 
Q 3.328125 12.796875 3.328125 25.921875 
z
M 12.359375 25.921875 
Q 12.359375 15.96875 16.703125 11.015625 
Q 21.046875 6.0625 27.640625 6.0625 
Q 34.1875 6.0625 38.53125 11.03125 
Q 42.875 16.015625 42.875 26.21875 
Q 42.875 35.84375 38.5 40.796875 
Q 34.125 45.75 27.640625 45.75 
Q 21.046875 45.75 16.703125 40.8125 
Q 12.359375 35.890625 12.359375 25.921875 
z
" id="ArialMT-6f"/>
      <path d="M 6.59375 -19.875 
L 6.59375 51.859375 
L 14.59375 51.859375 
L 14.59375 45.125 
Q 17.4375 49.078125 21 51.046875 
Q 24.5625 53.03125 29.640625 53.03125 
Q 36.28125 53.03125 41.359375 49.609375 
Q 46.4375 46.1875 49.015625 39.953125 
Q 51.609375 33.734375 51.609375 26.3125 
Q 51.609375 18.359375 48.75 11.984375 
Q 45.90625 5.609375 40.453125 2.21875 
Q 35.015625 -1.171875 29 -1.171875 
Q 24.609375 -1.171875 21.109375 0.6875 
Q 17.625 2.546875 15.375 5.375 
L 15.375 -19.875 
z
M 14.546875 25.640625 
Q 14.546875 15.625 18.59375 10.84375 
Q 22.65625 6.0625 28.421875 6.0625 
Q 34.28125 6.0625 38.453125 11.015625 
Q 42.625 15.96875 42.625 26.375 
Q 42.625 36.28125 38.546875 41.203125 
Q 34.46875 46.140625 28.8125 46.140625 
Q 23.1875 46.140625 18.859375 40.890625 
Q 14.546875 35.640625 14.546875 25.640625 
z
" id="ArialMT-70"/>
     </defs>
     <g style="fill:#262626;" transform="translate(385.7075 57.629813)scale(0.1 -0.1)">
      <use xlink:href="#ArialMT-72"/>
      <use x="33.300781" xlink:href="#ArialMT-6f"/>
      <use x="88.916016" xlink:href="#ArialMT-70"/>
      <use x="144.53125" xlink:href="#ArialMT-65"/>
     </g>
    </g>
    <g id="line2d_28">
     <path d="M 357.7075 68.397 
L 377.7075 68.397 
" style="fill:none;stroke:#2f56e0;stroke-linecap:round;stroke-width:2;"/>
    </g>
    <g id="line2d_29"/>
    <g id="text_8">
     <!-- pdf -->
     <g style="fill:#262626;" transform="translate(385.7075 71.897)scale(0.1 -0.1)">
      <use xlink:href="#ArialMT-70"/>
      <use x="55.615234" xlink:href="#ArialMT-64"/>
      <use x="111.230469" xlink:href="#ArialMT-66"/>
     </g>
    </g>
   </g>
  </g>
 </g>
 <defs>
  <clipPath id="p75bd568bb0">
   <rect height="266.112" width="357.12" x="57.6" y="41.472"/>
  </clipPath>
 </defs>
</svg>
